<svg xmlns="http://www.w3.org/2000/svg" width="132.86" height="46.533" viewBox="0 0 132.86 46.533">
  <g id="Grupo_8064" data-name="Grupo 8064" transform="translate(-120 -23.467)">
    <g id="Logo_SURA" data-name="Logo SURA" transform="translate(120 23.467)">
      <path id="Fill_1" data-name="Fill 1" d="M19.46.158c.046-.093.01-.144-.048-.158-2.551,1.023-8.129,2.049-11.6,2.572-3,.454-5.579.53-7.021.631l-.653.053A.15.15,0,0,0,0,3.377c-.018.055.024.094.067.128a4.585,4.585,0,0,0,2.8,1.344C4.813,5.12,7.7,4.608,11.3,3.559A39.62,39.62,0,0,0,19.46.158" transform="translate(95.496 37.642)" fill="#00aec7"/>
      <path id="Fill_3" data-name="Fill 3" d="M15.2,0A27.463,27.463,0,0,1,8.768,3.108,51.478,51.478,0,0,1,.124,5.351.174.174,0,0,0,0,5.47a.154.154,0,0,0,.041.108,3.744,3.744,0,0,0,1.991.74,10.024,10.024,0,0,0,3.606-.389A21.517,21.517,0,0,0,9.4,4.394,24.363,24.363,0,0,0,12.923,2.3a11.083,11.083,0,0,0,2.35-2.16C15.279.05,15.249.01,15.2,0" transform="translate(100.017 39.324)" fill="#00aec7"/>
      <path id="Fill_5" data-name="Fill 5" d="M1.26,3.194a5.641,5.641,0,0,0,2.5,1.526l.076.026c.286.077,17.283,4.592,21.784,5.818,1.969.534,3.528.962,4.258,1.173.078.005.116-.025.126-.073a.1.1,0,0,0-.065-.091C27.1,10.419,9.582,3.639,2.983,1.089L.205.005C.112-.006.065,0,.03.035A.157.157,0,0,0,0,.143,5.973,5.973,0,0,0,.734,2.527a4.324,4.324,0,0,0,.527.667" transform="translate(100.858 7.315)" fill="#00aec7"/>
      <path id="Fill_7" data-name="Fill 7" d="M1.014,3.761A4.372,4.372,0,0,0,2.3,4.836a6.953,6.953,0,0,0,.655.377l1.568.8c.891.454,14.019,6.627,15.935,7.588,2.271,1.126,4.536,2.2,5.529,2.707.1.019.147-.011.12-.127C23.662,14.645,14.268,8.68,7.561,4.5L2.753,1.565l-.88-.545L.239.022C.148-.012.108,0,.075.022a.1.1,0,0,0-.067.1A6.519,6.519,0,0,0,.349,2.539a5.816,5.816,0,0,0,.665,1.222" transform="translate(101.838 0)" fill="#00aec7"/>
      <path id="Fill_9" data-name="Fill 9" d="M6.64,0a.138.138,0,0,0-.079.017A17.421,17.421,0,0,1,.113,3.723.135.135,0,0,0,0,3.836a.169.169,0,0,0,.084.136c.166.083,1.457.784,3.9-.465A5.885,5.885,0,0,0,6.715.13C6.739.039,6.685,0,6.64,0" transform="translate(108.039 42.29)" fill="#00aec7"/>
      <path id="Fill_11" data-name="Fill 11" d="M15.951,0c-1.093.312-5.259,1.4-8.939,2.339C3.829,3.168.256,4.152.256,4.152c-.375.094-.238.249-.2.307.093.152.3.478.538.881a1.48,1.48,0,0,0,2.044.6C2.77,5.892,15.464.55,16.034.162c.1-.055.035-.1.03-.133S15.985,0,15.951,0" transform="translate(114.366 24.129)" fill="#00aec7"/>
      <path id="Fill_13" data-name="Fill 13" d="M7.99,0,7.91.03c-1.676,1.4-4.233,3.662-6.88,5.935A1.834,1.834,0,0,0,.577,7,14.742,14.742,0,0,1,.024,8.755c-.075.227.031.321.244.1,2.041-2.218,6.56-7.261,7.784-8.7C8.078.055,8.042.008,7.99,0" transform="translate(116.752 33.014)" fill="#00aec7"/>
      <path id="Fill_15" data-name="Fill 15" d="M29.86,5.33C27.6,4.909.176,0,.159,0A.208.208,0,0,0,.01.063.284.284,0,0,0,.016.228,5.108,5.108,0,0,0,3.381,3.67a2.809,2.809,0,0,0,.6.109S27.24,5.316,29.83,5.5c.065,0,.109-.028.109-.074a.094.094,0,0,0-.079-.094" transform="translate(102.921 15.383)" fill="#00aec7"/>
      <path id="Fill_17" data-name="Fill 17" d="M22.584,0c-.819.024-2.494.031-4.59.039C15.579.05,12.6.061,9.812.066,6.074.078.135.116.135.116A.169.169,0,0,0,.021.183.09.09,0,0,0,.025.3,4.344,4.344,0,0,0,.824,1.6a3.869,3.869,0,0,0,2.4,1.281,2.939,2.939,0,0,0,.3.01,1.975,1.975,0,0,0,.314-.033C3.953,2.843,21.632.332,22.589.177A.11.11,0,0,0,22.674.1a.1.1,0,0,0-.09-.1" transform="translate(109.055 22.294)" fill="#00aec7"/>
      <path id="Fill_19" data-name="Fill 19" d="M11.688,0C10.47.756,7.3,2.714,4.593,4.356,3.075,5.285,1.161,6.364.17,6.988c-.116.073-.209.07-.154.379,0,0,.045.3.076.65C.2,9.5.794,9.337,1.683,8.65l.1-.086c3.055-2.538,8.725-7.353,9.96-8.4.031-.108,0-.147-.059-.164" transform="translate(117.208 26.621)" fill="#00aec7"/>
      <path id="Fill_21" data-name="Fill 21" d="M10.9,26.933a10.086,10.086,0,0,1-7.431-2.974C1.116,21.534-.115,17.758.008,13.327a14.34,14.34,0,0,1,3.835-9.96A11.5,11.5,0,0,1,12.05,0H23.325V26.422a5.6,5.6,0,0,1-3.288-.751,3.687,3.687,0,0,1-1.37-2.776l0,.006a7.237,7.237,0,0,1-1.724,2.011A9.25,9.25,0,0,1,10.9,26.933ZM13.124,4.24c-.29.026-.581.038-.889.038-4.4,0-7.015,3.318-7.18,9.1-.1,3.44.632,5.983,2.166,7.56A6.117,6.117,0,0,0,11.8,22.705c4.554,0,6.593-3.585,6.593-7.138V4.246H13.123V4.24Z" transform="translate(65.689 10.555)" fill="#fff"/>
      <path id="Fill_23" data-name="Fill 23" d="M14.7,0l.017,18.322c0,2.674-2.189,4.015-5.081,4.015C6.591,22.336,4.6,21,4.6,18.322L4.56,4.613C4.554.705,2.132,0,0,0V19.447c0,4.911,4.375,7.321,9.486,7.321,4.958,0,9.81-2.41,9.81-7.321l0-14.236C19.292,1.367,17.86,0,14.7,0" transform="translate(24.316 10.555)" fill="#fff"/>
      <path id="Fill_25" data-name="Fill 25" d="M13.488,11.834,7.9,10.285c-1.538-.429-2.943-1.1-2.943-3,0-1.975,1.183-2.94,3.669-2.94H13.6c2.2,0,4.817-.739,4.822-4.348L9.062.009C3.3.015,0,2.951,0,7.161c0,3.918,2.465,6.12,6.862,7.3l4.864,1.3c2.012.547,2.731,1.816,2.731,3.119,0,1.985-1.241,3.183-4.261,3.2l-9.342.074v4.268h9.5c5.76,0,9.062-3.123,9.062-7.232,0-4.138-1.614-6.172-5.927-7.356" transform="translate(0 10.555)" fill="#fff"/>
      <path id="Fill_27" data-name="Fill 27" d="M9.563,0C3.9,0,0,3.3,0,10.105V26.422H4.56V9.948c0-3.5,1.871-5.6,5.4-5.6h1.355c4,0,4.653-2.088,4.653-4.348Z" transform="translate(49.773 10.555)" fill="#fff"/>
    </g>
  </g>
</svg>
