<svg xmlns="http://www.w3.org/2000/svg" width="191.846" height="67.192" viewBox="0 0 191.846 67.192">
  <g id="Grupo_8199" data-name="Grupo 8199" transform="translate(-581 -188.467)">
    <g id="Logo_SURA" data-name="Logo SURA" transform="translate(581 188.467)">
      <path id="Fill_1" data-name="Fill 1" d="M28.1.229c.067-.134.014-.207-.069-.229C24.348,1.478,16.293,2.959,11.277,3.714c-4.338.655-8.057.765-10.138.91L.2,4.7a.217.217,0,0,0-.189.175c-.026.08.035.136.1.185A6.621,6.621,0,0,0,4.145,7c2.8.391,6.968-.348,12.166-1.862A57.21,57.21,0,0,0,28.1.229" transform="translate(137.894 54.353)" fill="#00aec7"/>
      <path id="Fill_3" data-name="Fill 3" d="M21.952,0a39.655,39.655,0,0,1-9.291,4.488A74.332,74.332,0,0,1,.179,7.726.251.251,0,0,0,0,7.9a.222.222,0,0,0,.059.156A5.406,5.406,0,0,0,2.934,9.123a14.474,14.474,0,0,0,5.208-.562,31.069,31.069,0,0,0,5.431-2.216A35.179,35.179,0,0,0,18.66,3.323,16,16,0,0,0,22.054.2c.009-.132-.035-.189-.1-.2" transform="translate(144.422 56.783)" fill="#00aec7"/>
      <path id="Fill_5" data-name="Fill 5" d="M1.82,4.611a8.145,8.145,0,0,0,3.613,2.2l.11.038c.412.112,24.956,6.631,31.456,8.4,2.843.771,5.094,1.389,6.148,1.693.112.008.167-.037.181-.1a.145.145,0,0,0-.094-.132C39.128,15.045,13.836,5.255,4.308,1.573L.3.007C.162-.008.095,0,.043.051A.227.227,0,0,0,0,.207,8.625,8.625,0,0,0,1.059,3.649a6.244,6.244,0,0,0,.761.963" transform="translate(145.636 10.562)" fill="#00aec7"/>
      <path id="Fill_7" data-name="Fill 7" d="M1.464,5.431A6.313,6.313,0,0,0,3.32,6.983a10.039,10.039,0,0,0,.946.545L6.53,8.685c1.286.655,20.242,9.569,23.01,10.957,3.279,1.626,6.55,3.183,7.983,3.909.143.028.212-.016.174-.184C34.167,21.147,20.6,12.533,10.918,6.5L3.975,2.26,2.7,1.473.345.032C.214-.017.156,0,.108.032a.144.144,0,0,0-.1.139A9.413,9.413,0,0,0,.5,3.666a8.4,8.4,0,0,0,.96,1.765" transform="translate(147.052 0)" fill="#00aec7"/>
      <path id="Fill_9" data-name="Fill 9" d="M9.589,0a.2.2,0,0,0-.114.024A25.155,25.155,0,0,1,.164,5.376.2.2,0,0,0,0,5.539a.244.244,0,0,0,.121.2c.24.12,2.1,1.132,5.638-.672C7.771,4.039,8.789,2.385,9.7.188,9.731.057,9.654.006,9.589,0" transform="translate(156.006 61.066)" fill="#00aec7"/>
      <path id="Fill_11" data-name="Fill 11" d="M23.033,0C21.454.453,15.439,2.019,10.125,3.38,5.529,4.575.369,6,.369,6c-.542.136-.344.36-.285.443.135.219.435.691.777,1.272.824,1.4,1.947,1.215,2.951.86C4,8.507,22.329.794,23.153.234,23.3.155,23.2.087,23.2.042S23.081,0,23.033,0" transform="translate(165.141 34.842)" fill="#00aec7"/>
      <path id="Fill_13" data-name="Fill 13" d="M11.538,0l-.116.043C9,2.072,5.31,5.33,1.487,8.613a2.648,2.648,0,0,0-.653,1.5,21.287,21.287,0,0,1-.8,2.528c-.108.327.045.463.353.143C3.334,9.582,9.86,2.3,11.627.219c.037-.139-.015-.207-.09-.219" transform="translate(168.586 47.671)" fill="#00aec7"/>
      <path id="Fill_15" data-name="Fill 15" d="M43.116,7.7C39.86,7.089.254,0,.229,0A.3.3,0,0,0,.015.092.41.41,0,0,0,.023.329,7.376,7.376,0,0,0,4.883,5.3a4.056,4.056,0,0,0,.866.157s33.585,2.22,37.325,2.482c.094,0,.157-.04.157-.106a.135.135,0,0,0-.114-.136" transform="translate(148.615 22.213)" fill="#00aec7"/>
      <path id="Fill_17" data-name="Fill 17" d="M32.61,0c-1.183.035-3.6.045-6.627.056C22.5.072,18.187.088,14.168.1,8.77.113.2.168.2.168a.244.244,0,0,0-.165.1A.131.131,0,0,0,.037.439,6.273,6.273,0,0,0,1.19,2.308,5.587,5.587,0,0,0,4.656,4.158a4.244,4.244,0,0,0,.435.015,2.853,2.853,0,0,0,.454-.047C5.707,4.105,31.236.479,32.618.256A.159.159,0,0,0,32.74.144.148.148,0,0,0,32.61,0" transform="translate(157.472 32.192)" fill="#00aec7"/>
      <path id="Fill_19" data-name="Fill 19" d="M16.877,0C15.119,1.092,10.541,3.918,6.633,6.29c-2.192,1.342-4.956,2.9-6.387,3.8-.167.105-.3.1-.222.548,0,0,.065.428.11.938.153,2.141,1.013,1.9,2.3.914l.15-.124C6.991,8.7,15.178,1.75,16.962.237c.045-.156,0-.212-.085-.237" transform="translate(169.245 38.441)" fill="#00aec7"/>
      <path id="Fill_21" data-name="Fill 21" d="M15.746,38.89A14.563,14.563,0,0,1,5.017,34.6c-3.405-3.5-5.183-8.953-5-15.351C.179,13.308,2.094,8.335,5.55,4.862A16.608,16.608,0,0,1,17.4,0h16.28V38.153a8.079,8.079,0,0,1-4.748-1.084,5.325,5.325,0,0,1-1.979-4.008l0,.009a10.45,10.45,0,0,1-2.489,2.9A13.357,13.357,0,0,1,15.746,38.89Zm3.2-32.768c-.419.037-.839.055-1.284.055-6.351,0-10.13,4.791-10.367,13.144-.139,4.967.913,8.64,3.127,10.917a8.833,8.833,0,0,0,6.609,2.548c6.576,0,9.52-5.176,9.52-10.306V6.131H18.949l0-.009Z" transform="translate(94.852 15.241)" fill="#0033a0"/>
      <path id="Fill_23" data-name="Fill 23" d="M21.224,0l.025,26.456c0,3.862-3.161,5.8-7.337,5.8-4.395,0-7.272-1.936-7.272-5.8L6.585,6.661C6.576,1.019,3.079,0,0,0V28.08c0,7.092,6.318,10.571,13.7,10.571,7.159,0,14.166-3.48,14.166-10.571L27.857,7.524C27.857,1.974,25.79,0,21.224,0" transform="translate(35.112 15.241)" fill="#0033a0"/>
      <path id="Fill_25" data-name="Fill 25" d="M19.476,17.087l-8.071-2.236c-2.221-.62-4.249-1.593-4.249-4.328,0-2.853,1.709-4.245,5.3-4.245h7.18c3.174,0,6.955-1.067,6.963-6.278L13.085.012C4.763.021,0,4.261,0,10.34,0,16,3.56,19.176,9.908,20.881l7.024,1.877c2.905.79,3.943,2.622,3.943,4.5,0,2.867-1.792,4.6-6.152,4.621l-13.489.106v6.163H14.949c8.317,0,13.085-4.51,13.085-10.443,0-5.975-2.331-8.913-8.559-10.622" transform="translate(0 15.241)" fill="#0033a0"/>
      <path id="Fill_27" data-name="Fill 27" d="M13.809,0C5.632,0,0,4.77,0,14.592v23.56H6.585V14.364c0-5.056,2.7-8.086,7.792-8.086h1.957c5.777,0,6.719-3.015,6.719-6.278Z" transform="translate(71.87 15.241)" fill="#0033a0"/>
    </g>
  </g>
</svg>
